<svg xmlns="http://www.w3.org/2000/svg" width="24" height="24" fill="none"><path fill="#FFF" d="M11.982 0c.174.034 3.143 3.235 3.533 3.649.27.287.863 1.04 1.065 1.402.418.735.647 1.564.667 2.411.035 1.558-.443 2.446-1.441 3.573-.815.92-1.644 1.742-2.519 2.6q-.64.632-1.254 1.29c-.19-.147-.354-.355-.512-.497-3.373-3.031 1.23-3.929 1.909-6.63.22-.876-.872-2.041-1.395-2.74l-.14.129c-.103.098-.21.207-.309.31-1.108 1.142-2.267 2.232-3.369 3.38-.478.498-1.022 1.015-1.367 1.622-.454.8-.606 1.964-.153 2.798.412.647 1.154 1.368 1.693 1.931 1.195 1.25 2.431 2.455 3.62 3.714 1.638-1.707 3.354-3.411 5.015-5.1 2.01-2.111 2.547-3.006 2.539-5.975.247.324.392.62.575.978.51.963.812 1.822.856 2.926.106 2.652-1.391 4.343-3.107 6.136l-1.48 1.544A425 425 0 0 0 11.996 24c-.466-.569-1.459-1.526-2.001-2.083l-3.344-3.463c-1.762-1.806-3.51-3.477-3.643-6.181-.167-3.374 2.47-5.533 4.597-7.73l2.32-2.41c.693-.713 1.383-1.4 2.057-2.133"/></svg>