<svg width="391" height="518" viewBox="0 0 391 518" fill="none" xmlns="http://www.w3.org/2000/svg">
<path d="M195.099 0C198.888 0.728277 263.39 69.8304 271.857 78.753C277.738 84.9501 290.606 101.22 294.986 109.008C304.064 124.885 309.046 142.776 309.471 161.061C310.248 194.689 299.86 213.857 278.163 238.178C260.471 258.012 242.454 275.766 223.465 294.304C214.19 303.386 205.102 312.662 196.208 322.124C192.109 318.961 188.517 314.462 185.1 311.408C111.833 245.979 211.797 226.612 226.555 168.296C231.336 149.408 207.621 124.254 196.251 109.188C195.227 110.093 194.217 111.013 193.221 111.948C190.978 114.064 188.676 116.414 186.512 118.63C162.438 143.289 137.273 166.824 113.328 191.602C102.942 202.349 91.1251 213.501 83.6349 226.598C73.7667 243.851 70.4662 268.997 80.3125 286.995C89.2472 300.957 105.369 316.512 117.081 328.674C143.036 355.639 169.894 381.665 195.716 408.829C231.3 371.997 268.563 335.211 304.649 298.745C348.313 253.185 359.969 233.882 359.795 169.795C365.182 176.782 368.333 183.169 372.299 190.903C383.37 211.695 389.927 230.224 390.885 254.059C393.186 311.299 360.676 347.797 323.395 386.492L291.255 419.827C259.065 452.314 227.117 485.038 195.415 518C185.286 505.729 163.723 485.07 151.948 473.044L79.3096 398.294C41.0236 359.315 3.0661 323.255 0.163505 264.89C-3.45848 192.062 53.8195 145.473 100.031 98.0636L150.424 46.0569C165.479 30.6526 180.476 15.8248 195.099 0Z" fill="#F76235"/>
</svg>
