<svg width="48" height="48" viewBox="0 0 48 48" fill="none" xmlns="http://www.w3.org/2000/svg">
<path d="M36 0H12C5.37258 0 0 5.37258 0 12V36C0 42.6274 5.37258 48 12 48H36C42.6274 48 48 42.6274 48 36V12C48 5.37258 42.6274 0 36 0Z" fill="#9CC100"/>
<path d="M36.2723 18.5471C36.2721 16.7377 35.5537 15.0025 34.2744 13.723C32.9948 12.4433 31.2587 11.7238 29.449 11.7238C27.6392 11.7238 25.9033 12.4432 24.6236 13.723L16.2167 22.1298C15.9611 22.3855 15.8172 22.7326 15.8171 23.0941V32.1936H24.9139L25.0485 32.1869C25.1816 32.1737 25.312 32.1398 25.436 32.0884C25.6017 32.0196 25.7529 31.9184 25.8796 31.7913L34.2731 23.3738L34.2744 23.3725C35.5539 22.0928 36.2723 20.3567 36.2723 18.5471ZM39 18.5471C39 21.0795 37.9932 23.5073 36.203 25.2984L36.2043 25.2997L27.8108 33.7173C27.4308 34.0984 26.9799 34.4019 26.4829 34.6083C25.9858 34.8147 25.4522 34.9212 24.9139 34.9213H15.8171C15.0939 34.9213 14.4001 34.6335 13.8886 34.1222C13.3772 33.6107 13.0896 32.9168 13.0894 32.1936V23.0928C13.0897 22.0078 13.5208 20.967 14.2881 20.1999L22.695 11.7931C24.4862 10.002 26.916 8.99609 29.449 8.99609C31.9821 8.99614 34.4118 10.002 36.203 11.7931C37.9941 13.5842 38.9998 16.014 39 18.5471Z" fill="white"/>
<path d="M28.4914 17.5894C29.024 17.0568 29.8873 17.0568 30.42 17.5894C30.9526 18.122 30.9526 18.9854 30.42 19.518L11.326 38.6119C10.7934 39.1446 9.93007 39.1446 9.39745 38.6119C8.86483 38.0793 8.86483 37.216 9.39745 36.6834L28.4914 17.5894Z" fill="white"/>
<path d="M31.5015 26.7368C32.2547 26.7368 32.8653 27.3475 32.8653 28.1007C32.8653 28.8539 32.2547 29.4645 31.5015 29.4645H19.9087C19.1555 29.4645 18.5449 28.8539 18.5449 28.1007C18.5449 27.3475 19.1555 26.7368 19.9087 26.7368H31.5015Z" fill="white"/>
</svg>
